HIERARCHY
ROOT Hips
{
	OFFSET 0.000000 100.481300 0.000000
	CHANNELS 6 Xposition Yposition Zposition Xrotation Yrotation Zrotation
	JOINT Spine
	{
		OFFSET -0.279200 12.230698 -2.892100
		CHANNELS 3 Xrotation Yrotation Zrotation
		JOINT Spine1
		{
			OFFSET -0.325700 14.269203 -3.374200
			CHANNELS 3 Xrotation Yrotation Zrotation
			JOINT Spine2
			{
				OFFSET -0.372300 16.307602 -0.352600
				CHANNELS 3 Xrotation Yrotation Zrotation
				JOINT Neck
				{
					OFFSET -0.418800 17.814194 8.416900
					CHANNELS 3 Xrotation Yrotation Zrotation
					JOINT Head
					{
						OFFSET 0.000000 7.031097 3.806800
						CHANNELS 3 Xrotation Yrotation Zrotation
						JOINT HeadTop_End
						{
							OFFSET 0.000000 24.646606 12.978600
							CHANNELS 3 Xrotation Yrotation Zrotation
							End Site
							{
								OFFSET 0.000000 27.854965 0.000000
							}
						}
					}
				}
				JOINT LeftShoulder
				{
					OFFSET 16.952999 14.495407 -7.737500
					CHANNELS 3 Xrotation Yrotation Zrotation
					JOINT LeftArm
					{
						OFFSET 9.308998 -2.777710 0.208600
						CHANNELS 3 Xrotation Yrotation Zrotation
						JOINT LeftForeArm
						{
							OFFSET 29.972298 0.000000 0.000000
							CHANNELS 3 Xrotation Yrotation Zrotation
							JOINT LeftHand
							{
								OFFSET 26.026505 0.000000 0.000000
								CHANNELS 3 Xrotation Yrotation Zrotation
								JOINT LeftHandThumb1
								{
									OFFSET 12.240501 -7.147949 9.207150
									CHANNELS 3 Xrotation Yrotation Zrotation
									JOINT LeftHandThumb2
									{
										OFFSET 4.138618 -2.389435 2.389433
										CHANNELS 3 Xrotation Yrotation Zrotation
										JOINT LeftHandThumb3
										{
											OFFSET 2.726913 -1.574387 1.574386
											CHANNELS 3 Xrotation Yrotation Zrotation
											JOINT LeftHandThumb4
											{
												OFFSET 3.941010 -2.275345 2.275342
												CHANNELS 3 Xrotation Yrotation Zrotation
												End Site
												{
													OFFSET -0.005798 5.087799 0.009903
												}
											}
										}
									}
								}
								JOINT LeftHandIndex1
								{
									OFFSET 24.424698 -1.985611 5.953459
									CHANNELS 3 Xrotation Yrotation Zrotation
									JOINT LeftHandIndex2
									{
										OFFSET 6.426697 0.000000 0.000000
										CHANNELS 3 Xrotation Yrotation Zrotation
										JOINT LeftHandIndex3
										{
											OFFSET 5.337898 0.000000 0.000000
											CHANNELS 3 Xrotation Yrotation Zrotation
											JOINT LeftHandIndex4
											{
												OFFSET 4.409401 0.000000 0.000000
												CHANNELS 3 Xrotation Yrotation Zrotation
												End Site
												{
													OFFSET 0.000000 4.409363 0.014373
												}
											}
										}
									}
								}
								JOINT LeftHandMiddle1
								{
									OFFSET 23.810104 0.000000 0.000000
									CHANNELS 3 Xrotation Yrotation Zrotation
									JOINT LeftHandMiddle2
									{
										OFFSET 7.176498 0.000000 0.000000
										CHANNELS 3 Xrotation Yrotation Zrotation
										JOINT LeftHandMiddle3
										{
											OFFSET 6.774902 0.000000 0.000000
											CHANNELS 3 Xrotation Yrotation Zrotation
											JOINT LeftHandMiddle4
											{
												OFFSET 5.403328 0.000000 0.000000
												CHANNELS 3 Xrotation Yrotation Zrotation
												End Site
												{
													OFFSET -0.027702 5.403244 0.017414
												}
											}
										}
									}
								}
								JOINT LeftHandRing1
								{
									OFFSET 22.908401 -0.839279 -6.020567
									CHANNELS 3 Xrotation Yrotation Zrotation
									JOINT LeftHandRing2
									{
										OFFSET 6.337502 0.000000 0.000000
										CHANNELS 3 Xrotation Yrotation Zrotation
										JOINT LeftHandRing3
										{
											OFFSET 5.779297 0.000000 0.000000
											CHANNELS 3 Xrotation Yrotation Zrotation
											JOINT LeftHandRing4
											{
												OFFSET 4.965698 0.000000 0.000000
												CHANNELS 3 Xrotation Yrotation Zrotation
												End Site
												{
													OFFSET 0.000000 4.965668 0.016186
												}
											}
										}
									}
								}
								JOINT LeftHandPinky1
								{
									OFFSET 20.037003 -1.530319 -10.950146
									CHANNELS 3 Xrotation Yrotation Zrotation
									JOINT LeftHandPinky2
									{
										OFFSET 5.254700 0.000000 0.000000
										CHANNELS 3 Xrotation Yrotation Zrotation
										JOINT LeftHandPinky3
										{
											OFFSET 4.810204 0.000000 0.000000
											CHANNELS 3 Xrotation Yrotation Zrotation
											JOINT LeftHandPinky4
											{
												OFFSET 3.647202 0.000000 0.000000
												CHANNELS 3 Xrotation Yrotation Zrotation
												End Site
												{
													OFFSET 0.000000 3.647186 0.011889
												}
											}
										}
									}
								}
							}
						}
					}
				}
				JOINT RightShoulder
				{
					OFFSET -15.141001 14.495407 -7.737500
					CHANNELS 3 Xrotation Yrotation Zrotation
					JOINT RightArm
					{
						OFFSET -9.308998 -2.777710 0.208500
						CHANNELS 3 Xrotation Yrotation Zrotation
						JOINT RightForeArm
						{
							OFFSET -29.972300 0.000000 0.000000
							CHANNELS 3 Xrotation Yrotation Zrotation
							JOINT RightHand
							{
								OFFSET -26.026505 0.000000 0.000000
								CHANNELS 3 Xrotation Yrotation Zrotation
								JOINT RightHandThumb1
								{
									OFFSET -12.240601 -7.148026 9.207092
									CHANNELS 3 Xrotation Yrotation Zrotation
									JOINT RightHandThumb2
									{
										OFFSET -4.138618 -2.389435 2.389433
										CHANNELS 3 Xrotation Yrotation Zrotation
										JOINT RightHandThumb3
										{
											OFFSET -2.726974 -1.574417 1.574421
											CHANNELS 3 Xrotation Yrotation Zrotation
											JOINT RightHandThumb4
											{
												OFFSET -3.941010 -2.275345 2.275343
												CHANNELS 3 Xrotation Yrotation Zrotation
												End Site
												{
													OFFSET 0.005814 5.087799 0.009927
												}
											}
										}
									}
								}
								JOINT RightHandIndex1
								{
									OFFSET -24.424698 -1.985657 5.953444
									CHANNELS 3 Xrotation Yrotation Zrotation
									JOINT RightHandIndex2
									{
										OFFSET -6.426697 0.000000 0.000000
										CHANNELS 3 Xrotation Yrotation Zrotation
										JOINT RightHandIndex3
										{
											OFFSET -5.337898 0.000000 0.000000
											CHANNELS 3 Xrotation Yrotation Zrotation
											JOINT RightHandIndex4
											{
												OFFSET -4.409401 0.000000 0.000000
												CHANNELS 3 Xrotation Yrotation Zrotation
												End Site
												{
													OFFSET 0.000000 4.409363 0.014408
												}
											}
										}
									}
								}
								JOINT RightHandMiddle1
								{
									OFFSET -23.810097 0.000000 0.000000
									CHANNELS 3 Xrotation Yrotation Zrotation
									JOINT RightHandMiddle2
									{
										OFFSET -7.176498 0.000000 0.000000
										CHANNELS 3 Xrotation Yrotation Zrotation
										JOINT RightHandMiddle3
										{
											OFFSET -6.774902 0.000000 0.000000
											CHANNELS 3 Xrotation Yrotation Zrotation
											JOINT RightHandMiddle4
											{
												OFFSET -5.403328 0.000000 0.000000
												CHANNELS 3 Xrotation Yrotation Zrotation
												End Site
												{
													OFFSET 0.027702 5.403244 0.017457
												}
											}
										}
									}
								}
								JOINT RightHandRing1
								{
									OFFSET -22.908302 -0.839325 -6.020576
									CHANNELS 3 Xrotation Yrotation Zrotation
									JOINT RightHandRing2
									{
										OFFSET -6.337502 0.000000 0.000000
										CHANNELS 3 Xrotation Yrotation Zrotation
										JOINT RightHandRing3
										{
											OFFSET -5.779297 0.000000 0.000000
											CHANNELS 3 Xrotation Yrotation Zrotation
											JOINT RightHandRing4
											{
												OFFSET -4.965698 0.000000 0.000000
												CHANNELS 3 Xrotation Yrotation Zrotation
												End Site
												{
													OFFSET 0.000000 4.965668 0.016226
												}
											}
										}
									}
								}
								JOINT RightHandPinky1
								{
									OFFSET -20.037003 -1.530334 -10.950259
									CHANNELS 3 Xrotation Yrotation Zrotation
									JOINT RightHandPinky2
									{
										OFFSET -5.254700 0.000000 0.000000
										CHANNELS 3 Xrotation Yrotation Zrotation
										JOINT RightHandPinky3
										{
											OFFSET -4.810204 0.000000 0.000000
											CHANNELS 3 Xrotation Yrotation Zrotation
											JOINT RightHandPinky4
											{
												OFFSET -3.647202 0.000000 0.000000
												CHANNELS 3 Xrotation Yrotation Zrotation
												End Site
												{
													OFFSET 0.000000 3.647186 0.011917
												}
											}
										}
									}
								}
							}
						}
					}
				}
			}
		}
	}
	JOINT LeftUpLeg
	{
		OFFSET 15.427100 -6.655098 0.678600
		CHANNELS 3 Xrotation Yrotation Zrotation
		JOINT LeftLeg
		{
			OFFSET 4.081073 -39.591068 13.024000
			CHANNELS 3 Xrotation Yrotation Zrotation
			JOINT LeftFoot
			{
				OFFSET -4.081074 -37.707932 -15.979700
				CHANNELS 3 Xrotation Yrotation Zrotation
				JOINT LeftToeBase
				{
					OFFSET 5.346399 -15.068900 20.645000
					CHANNELS 3 Xrotation Yrotation Zrotation
					JOINT LeftToe_End
					{
						OFFSET 2.754700 0.931300 11.300900
						CHANNELS 3 Xrotation Yrotation Zrotation
						End Site
						{
							OFFSET 0.000000 11.669021 0.000000
						}
					}
				}
			}
		}
	}
	JOINT RightUpLeg
	{
		OFFSET -15.569500 -6.655098 0.678600
		CHANNELS 3 Xrotation Yrotation Zrotation
		JOINT RightLeg
		{
			OFFSET -4.081825 -39.591045 13.023800
			CHANNELS 3 Xrotation Yrotation Zrotation
			JOINT RightFoot
			{
				OFFSET 4.081824 -37.707954 -15.979600
				CHANNELS 3 Xrotation Yrotation Zrotation
				JOINT RightToeBase
				{
					OFFSET -5.346400 -15.068900 20.645000
					CHANNELS 3 Xrotation Yrotation Zrotation
					JOINT RightToe_End
					{
						OFFSET -2.754700 0.931300 11.300900
						CHANNELS 3 Xrotation Yrotation Zrotation
						End Site
						{
							OFFSET 0.000000 11.669021 0.000000
						}
					}
				}
			}
		}
	}
}
MOTION
Frames: 4
Frame Time: 0.033333
-0.706228 79.895378 -4.297712 5.471227 3.248675 -5.410151 4.873100 1.211074 3.800295 9.857121 2.800248 1.722122 9.857131 2.800253 1.722122 -7.496582 -3.144981 -0.434787 -14.101450 -7.360288 -5.253898 -0.000001 0.000000 -0.000000 1.084052 -1.226539 -9.108717 21.951239 16.129924 -69.744626 5.201934 -103.989869 -6.123331 11.822877 -20.243291 2.841587 -3.691981 -7.086329 -6.633115 5.384066 13.660773 2.740232 0.000005 -0.000012 -0.000002 0.000002 -0.000000 0.000000 -4.473745 -5.484339 -78.092032 -6.128862 -4.165771 -86.100367 0.000001 -0.000000 0.000000 0.000002 -0.000001 0.000002 -4.806596 -3.743843 -81.576733 -5.140079 -5.369645 -79.877662 -0.000007 -0.000001 0.000003 -0.000003 -0.000002 -0.000000 -3.655199 4.571984 -85.638831 -3.076238 -4.303794 -82.603072 -0.000001 0.000001 0.000001 0.000002 -0.000000 -0.000002 -3.272581 10.937611 -91.302684 -1.699620 -6.213240 -92.126534 -0.000000 0.000004 -0.000002 -0.000000 0.000003 0.000001 0.776460 6.054093 9.529803 5.506724 -10.523615 55.529298 -70.896319 86.710467 75.613302 -0.541034 5.793784 2.436064 1.190148 2.334213 7.237167 4.258188 -11.099258 -2.562249 0.000003 -0.000006 -0.000025 0.000000 -0.000002 -0.000000 3.425636 2.972030 72.847027 -5.578142 2.954077 92.129806 0.000003 0.000001 0.000011 0.000001 -0.000000 -0.000000 -2.180348 2.049507 78.118847 -4.728787 4.315015 85.933219 0.000004 0.000003 0.000003 -0.000001 0.000002 0.000000 -3.530007 -3.130972 85.505451 -4.828603 5.688367 88.623234 0.000001 0.000000 -0.000001 0.000000 -0.000002 0.000000 -4.108886 -7.839753 98.143391 -5.434352 9.329066 98.221351 -0.000004 0.000000 -0.000001 -0.000002 0.000000 -0.000002 -39.241445 2.161058 1.724859 95.160470 12.132305 2.390885 -10.136191 -1.354538 5.720277 -0.898530 -2.887884 -6.627548 -0.000002 0.000000 -0.000000 -20.674178 -7.771424 8.318012 52.050918 -1.363311 -2.669109 -28.873252 0.880203 -2.166811 -10.356521 12.980913 -1.406491 -0.000000 0.000000 0.000000 
0.343385 77.366722 11.601019 5.475925 0.464981 -4.144327 4.981474 2.734609 2.938543 10.108420 3.379755 1.525969 10.108420 3.379755 1.525969 -7.107377 -3.680911 0.192057 -14.069310 -6.469718 -5.765618 -0.000001 0.000000 0.000000 1.113002 -0.773658 -9.514033 23.736791 19.813747 -72.527504 -2.579456 -98.874221 -12.062563 11.477837 -21.198102 5.201761 -3.204753 -6.645177 -6.487955 5.174424 13.153461 2.691703 0.000006 -0.000013 0.000000 -0.000001 -0.000000 -0.000000 -4.453580 -5.468562 -75.347621 -5.815890 -4.137780 -83.508160 0.000001 0.000002 0.000002 -0.000002 0.000000 -0.000001 -4.219506 -3.636010 -79.057056 -4.909658 -5.324509 -77.720805 -0.000007 -0.000003 0.000004 0.000001 0.000001 0.000002 -3.196835 4.683030 -83.637401 -2.963198 -4.287504 -80.726983 0.000001 0.000000 0.000005 -0.000001 0.000002 0.000003 -2.865257 10.929279 -89.226982 -1.657629 -6.214374 -90.172116 -0.000001 0.000009 -0.000002 -0.000001 -0.000002 0.000000 0.710908 6.399440 10.652993 3.484347 -8.292469 56.332231 -34.320273 87.076231 39.662444 0.456721 5.903461 2.733831 0.837861 2.018530 6.986756 4.390459 -11.398855 -2.584593 0.000005 -0.000007 -0.000025 0.000000 -0.000001 -0.000002 3.317580 2.608450 70.335157 -5.299037 2.957509 89.337727 0.000003 0.000000 0.000012 0.000000 -0.000002 -0.000001 -2.035442 1.903971 75.693447 -4.546395 4.298628 83.878548 0.000003 0.000005 0.000004 -0.000002 -0.000001 -0.000001 -3.254974 -3.126973 83.141086 -4.665634 5.681561 86.723629 0.000002 0.000004 0.000001 0.000002 0.000004 0.000001 -3.846905 -7.757955 95.401842 -5.272919 9.349046 96.102134 0.000001 -0.000003 0.000001 -0.000001 0.000004 0.000000 -67.228691 11.726903 0.716690 83.895466 8.703700 9.713454 5.207816 -2.007736 4.294444 0.881280 -4.294904 -5.210689 -0.000000 0.000000 -0.000000 -8.759898 -4.378317 5.673236 50.748893 -2.514908 -1.209518 -39.817619 -0.966031 0.966415 -10.228703 12.448061 -1.371609 0.000000 0.000001 -0.000000 
1.022927 75.871712 24.288990 5.300204 -3.541736 -1.377012 5.548842 3.866489 0.725566 11.100814 3.868544 1.011230 11.100805 3.868546 1.011230 -7.988627 -3.615754 0.162014 -15.488286 -5.237124 -5.848820 -0.000000 0.000000 0.000000 1.114680 -0.708225 -11.179701 25.266150 24.153299 -74.350974 -8.962644 -96.452127 -15.773586 11.400990 -20.915241 7.846427 -2.719031 -6.203310 -6.351004 4.964700 12.646516 2.640637 0.000000 -0.000014 0.000000 0.000001 -0.000001 0.000001 -4.431660 -5.463405 -72.603067 -5.504543 -4.095722 -80.916199 -0.000004 -0.000002 -0.000002 -0.000001 -0.000002 -0.000001 -3.641083 -3.487404 -76.539305 -4.681094 -5.270775 -75.564275 -0.000008 -0.000002 0.000001 0.000003 0.000000 -0.000002 -2.746247 4.821282 -81.635862 -2.850742 -4.267539 -78.850893 0.000000 0.000006 -0.000001 -0.000002 0.000002 -0.000002 -2.457744 10.946271 -87.151472 -1.615622 -6.214074 -88.217583 -0.000001 0.000006 -0.000002 0.000002 0.000000 0.000001 0.699426 6.603058 11.071666 1.169117 -6.544035 56.339242 -38.501694 87.310800 43.341737 0.079704 6.330557 3.188422 0.484084 1.706321 6.733876 4.522674 -11.698605 -2.606204 0.000006 -0.000005 -0.000023 -0.000003 -0.000001 -0.000003 3.195707 2.259995 67.821859 -5.020116 2.947375 86.545607 0.000002 -0.000001 0.000011 0.000001 0.000001 -0.000001 -1.896641 1.753085 73.268580 -4.364595 4.276743 81.823945 0.000003 0.000004 0.000003 -0.000001 0.000002 0.000001 -2.978968 -3.136463 80.776898 -4.503027 5.669378 84.823962 0.000002 -0.000000 0.000000 0.000001 -0.000002 -0.000000 -3.579057 -7.686805 92.660908 -5.110867 9.363076 93.982781 -0.000003 -0.000004 0.000001 0.000001 -0.000002 -0.000003 -80.046006 14.325400 -1.154410 63.489422 -1.980558 11.997287 18.099009 -3.386617 4.543715 -0.374055 -3.033024 -4.833322 0.000000 -0.000001 -0.000000 -1.748122 -2.090915 0.425525 50.933779 -3.785691 -0.964745 -43.039238 -3.737362 5.895989 -12.932757 12.716959 -0.916108 -0.000000 -0.000000 -0.000000 
1.328261 72.079651 34.561581 5.142297 -8.609931 0.318628 6.372061 4.748152 -0.811554 12.599114 4.281458 0.537881 12.599105 4.281458 0.537881 -9.676249 -2.911801 -0.322219 -17.714652 -3.457707 -5.484458 0.000001 0.000000 0.000000 1.145469 -0.433246 -11.910620 25.452859 26.411600 -75.773449 -17.228628 -95.917002 -21.896500 11.409646 -18.766326 8.080146 -2.234638 -5.760769 -6.222062 4.754779 12.140045 2.587054 0.000006 -0.000012 0.000004 0.000003 0.000003 -0.000002 -4.406983 -5.468680 -69.858403 -5.195431 -4.039654 -78.324696 -0.000003 0.000003 -0.000003 0.000003 -0.000002 0.000002 -3.074570 -3.296021 -74.024211 -4.454758 -5.208524 -73.408271 -0.000008 -0.000002 0.000006 0.000004 0.000001 0.000001 -2.304799 4.986245 -79.634419 -2.739037 -4.243914 -76.975037 -0.000002 0.000000 0.000001 -0.000000 -0.000002 -0.000002 -2.051426 10.988478 -85.076167 -1.573631 -6.212332 -86.263186 0.000002 0.000005 -0.000002 0.000002 -0.000001 -0.000004 0.699233 7.018056 11.059936 -0.581947 -4.784342 55.387401 -44.358657 88.070583 48.102666 -0.880870 6.299018 4.023892 0.128539 1.397418 6.478382 4.654895 -11.998396 -2.626873 0.000004 -0.000001 -0.000026 -0.000001 0.000002 0.000000 3.061183 1.927303 65.306997 -4.742013 2.923688 83.753706 0.000001 -0.000002 0.000011 -0.000000 -0.000000 -0.000001 -1.763256 1.599681 70.844225 -4.183630 4.248447 79.769520 0.000006 0.000005 0.000002 0.000001 0.000000 -0.000001 -2.702584 -3.159302 78.413003 -4.340870 5.651869 82.924459 0.000000 0.000003 0.000001 -0.000001 0.000000 -0.000000 -3.305721 -7.626495 89.920731 -4.947821 9.371208 91.863305 -0.000001 0.000000 0.000001 -0.000000 -0.000003 -0.000002 -84.833552 4.715070 -0.064108 51.520865 -9.838313 4.768374 16.480589 -3.890038 11.811491 -8.466980 0.169816 -1.763089 -0.000000 0.000000 -0.000002 -2.121930 -0.974272 -3.792875 60.637088 -2.875154 -1.711863 -41.884141 -5.319558 10.424851 -21.117557 12.245552 -0.056626 0.000000 -0.000000 0.000000 
